<?xml version="1.0" encoding="utf-8"?>
<!-- Generator: Adobe Illustrator 25.2.0, SVG Export Plug-In . SVG Version: 6.00 Build 0)  -->
<svg version="1.1" id="Group_4277" xmlns="http://www.w3.org/2000/svg" xmlns:xlink="http://www.w3.org/1999/xlink" x="0px" y="0px"
	 viewBox="0 0 72.1 37.6" style="enable-background:new 0 0 72.1 37.6;" xml:space="preserve">
<style type="text/css">
	.st0{fill:#3061AE;}
</style>
<g id="Group_4242" transform="translate(45.51 9.502)">
	<g id="Group_4241">
		<path id="Path_4051" class="st0" d="M12.5,0l0.1,6h-1c-0.2-0.6-0.8-2.7-1-3.1C10.5,2.5,10.2,2.2,9.8,2C8.6,1.9,7.3,1.9,6,1.9v5
			C6,7,7.3,7,7.7,6.6C8.1,5.8,8.3,4.9,8.3,4H9v8H8.3c-0.1-0.7-0.3-1.4-0.6-2C7.4,9.5,6,9.5,6,9.5v3.8C6,14.6,6.7,15,8.2,15L9.3,15
			c0.7,0,0.9-0.2,1.3-0.7c0.3-0.3,0.6-0.8,0.8-1.2c0.3-0.7,0.5-1.5,0.8-2.3l0.9,0L12.9,16H0v-1.2c0.9,0,1.5,0,1.8,0
			c0.1,0,0.2-0.1,0.2-0.3c0-0.2,0-0.5,0-0.9V3c0-0.6-0.9-0.6-1.8-0.6L0,2.4V0H12.5z"/>
	</g>
</g>
<g id="Group_4243" transform="translate(31.51 9.502)">
	<path id="Path_4052" class="st0" d="M6,8.7v4.9c0,0.6,0.1,0.6,0.3,0.8c0.2,0.1,0.4,0.2,0.7,0.3c0.3,0.1,0.7,0.1,1,0.1V16H0v-1.2
		c0.5,0,1,0,1.4,0c0.5,0,0.6-0.2,0.6-1V2.7c0-0.2-0.1-0.5-0.2-0.7C1.3,1.5,0.7,1.2,0,1.2V0h8.8c1,0,1.9,0.2,2.7,0.7
		c0.7,0.4,1.2,1,1.5,1.7c0.3,0.6,0.4,1.3,0.4,2c0,0.7-0.1,1.4-0.5,2.1c-0.3,0.5-0.7,1-1.1,1.3c-0.5,0.4-1,0.7-1.6,0.8
		C9.4,8.8,8.6,8.9,7.8,8.9C7.2,8.9,6.6,8.8,6,8.7z M6,1.1v6.8C6.3,8,6.7,8,7,8c1.3,0.1,2.5-0.7,3-2c0.2-0.5,0.3-1.1,0.3-1.7
		c0-0.6-0.1-1.1-0.3-1.6C9.8,2.2,9.4,1.7,8.9,1.4C8.3,1.1,7.7,0.9,7,1C6.7,1,6.3,1,6,1.1z"/>
</g>
<g id="Group_4244" transform="translate(60.852 10.502)">
	<path id="Path_4053" class="st0" d="M9.8,14H6.9L5,10.6L3.2,15l-3.1,0l3.3-7.2L0,0h3.3l2.1,4.7L9.8,14z"/>
</g>
<path id="Path_4054" class="st0" d="M66.7,14.8c0,0,0.1-3.5,2.8-4.5c0,0,2.7-2,2.5-3.3c0,0,0.1,4.6-0.4,5.6c0,0-0.7,2-1.8,2.3
	c-0.7,0.1-1.5,0.1-2.2,0c0,0,1-2.2,1.9-2.3v-0.1c0,0-1.7-0.4-2.7,2.4L66.7,14.8z"/>
<path id="Path_4055" class="st0" d="M34.6,28.2L34.6,28.2l-2.3-2.9l-13-25c-0.2-0.3-0.4-0.3-0.6,0L9.9,16.6L4,27.5h4.5l5.3-10.1
	c1.7,0.3,3.8,1.5,5.8,2.8c2.8,1.6,5.5,3.6,7.9,5.8c3.7,3.6,7,7.4,9.9,11.6l4.5-0.1L34.6,28.2z M25,20.3L15.2,16
	c-0.2-0.2-0.3-0.5-0.2-0.8l3.4-6.5c0.1-0.2,0.3-0.3,0.5-0.3c0.1,0,0.2,0.1,0.3,0.3c1.3,2.5,5.5,10.8,5.7,11.2
	C25.3,20.3,25,20.3,25,20.3z"/>
<path id="Path_4056" class="st0" d="M0,14.4c0,0,10.6,1,9.9,2.4l1-1.8L0,14.4z"/>
</svg>
